<?xml version="1.0"?><svg xmlns="http://www.w3.org/2000/svg" id="Heart" viewBox="0 0 64 64"><polygon points="1 1 11 3 3 11 1 1" style="fill:#ffcd5f; stroke-width:0px;"/><path d="m28.69140625,56.14208984c-13.94921875-3.61621094-23.69140625-16.20654297-23.69140625-30.6171875,0-8.00927734,6.515625-14.52490234,14.52490234-14.52490234,4.58056641,0,8.94384766,2.19775391,11.671875,5.87890625l.80322266,1.08447266.80322266-1.08447266c2.72802734-3.68115234,7.09130859-5.87890625,11.671875-5.87890625,8.00927734,0,14.52490234,6.515625,14.52490234,14.52490234,0,14.41064453-9.7421875,27.00097656-23.69140625,30.6171875l-3.30859375.85791016-3.30859375-.85791016Z" style="fill:#f95d77; stroke-width:0px;"/><polygon points="44 54 44 44 54 44 63 53 55 55 53 63 44 54" style="fill:#ffcd5f; stroke-width:0px;"/><path d="m40.56494141,53.15966797c-1.75537109.84863281-3.60693359,1.52539062-5.50634766,2.01269531l-3.05859375.79443359-3.05957031-.79492188c-13.50683594-3.49560547-22.94042969-15.68505859-22.94042969-29.64208984,0-3.62109375,1.40527344-7.02099609,3.95703125-9.57275391s5.95166016-3.95703125,9.57275391-3.95703125c2.14013672,0,4.27783203.51855469,6.18066406,1.49804688,1.90722656.98681641,3.57275391,2.42626953,4.81689453,4.16503906l.66015228.91992188c.37598053.5234375,1.24902741.5234375,1.62499996,0l.66162511-.921875c2.53027344-3.54492188,6.64111328-5.66113281,10.99609375-5.66113281,3.62109375,0,7.02099609,1.40527344,9.57275391,3.95703125s3.95703125,5.95166016,3.95703125,9.57275391c0,5.23339844-1.35595703,10.41357422-3.921875,14.98046875-.27050781.48144531-.09912109,1.09130859.38232422,1.36181641.48046875.27001953,1.09033203.09912109,1.36181641-.38232422,2.73291016-4.86523438,4.17773438-10.38378906,4.17773438-15.95996094,0-4.15527344-1.61328125-8.05712891-4.54296875-10.98681641s-6.83154297-4.54296875-10.98681641-4.54296875c-4.91357422,0-9.55615234,2.34619141-12.47021484,6.28759766-1.40917969-1.89941406-3.26123047-3.47460938-5.37255859-4.56689453-2.18603516-1.12548828-4.640625-1.72070312-7.09765625-1.72070312-2.33331299,0-4.57897949.52563477-6.62524414,1.49047852l-4.49047852-4.49047852,3.29296875-3.29296875c.26074219-.26074219.35693359-.64404297.25-.99658203-.10693359-.35302734-.39941406-.61865234-.76074219-.69091797L1.19628906.01953125C.86816406-.04736328.52978516.05615234.29296875.29296875.05664062.52929688-.04638672.86816406.01953125,1.19628906l2,10c.07226562.36132812.33789062.65380859.69091797.76074219.09521484.02880859.19287109.04296875.28955078.04296875.26123047,0,.51660156-.10253906.70703125-.29296875l3.29296875-3.29296875,4.08123779,4.08123779c-.90466309.58795166-1.75799561,1.26739502-2.53826904,2.04766846-2.9296875,2.9296875-4.54296875,6.83154297-4.54296875,10.98681641,0,14.86865234,10.04980469,27.85449219,24.43847656,31.578125l3.31005859.85986328c.08251953.02148438.16699219.03222656.25146484.03222656s.16894531-.01074219.25146484-.03222656l3.30712891-.85888672c2.02490234-.51953125,4.00195312-1.2421875,5.87646484-2.1484375.49755859-.24023438.70556641-.83837891.46533203-1.33544922-.24023438-.49804688-.83886719-.70605469-1.33544922-.46533203ZM3.61425781,8.97167969l-1.33935547-6.69677734,6.69677734,1.33935547-5.35742188,5.35742188Z" style="fill:#30333d; stroke-width:0px;"/><path d="m63.70703125,52.29296875l-9-9c-.1875-.1875-.44189453-.29296875-.70703125-.29296875h-9.5859375l-4.69940186-4.69940186c.39111328-.18713379.8236084-.30059814,1.28533936-.30059814.55224609,0,1-.44775391,1-1s-.44775391-1-1-1c-2.75683594,0-5,2.24316406-5,5,0,.55224609.44775391,1,1,1s1-.44775391,1-1c0-.46173096.11346436-.89422607.30059814-1.28533936l4.69940186,4.69940186v9.5859375c0,.26513672.10546875.51953125.29296875.70703125l9,9c.18994141.18994141.4453125.29296875.70703125.29296875.08886719,0,.17871094-.01171875.26708984-.03613281.34716797-.09619141.61572266-.37158203.703125-.72119141l1.57165527-6.28674316,3.75109863,3.75109863c.1953125.1953125.45117188.29296875.70703125.29296875s.51171875-.09765625.70703125-.29296875c.390625-.390625.390625-1.0234375,0-1.4140625l-3.75109863-3.75109863,6.28674316-1.57165527c.34960938-.08740234.625-.35595703.72119141-.703125s-.00195312-.71923828-.25683594-.97412109Zm-10.12109375-7.29296875l3.45800781,3.45800781-5.73730469,1.43457031-4.89257812-4.89257812h7.171875Zm-8.5859375,1.4140625l4.89257812,4.89257812-1.43457031,5.73730469-3.45800781-3.45800781v-7.171875Zm7.45800781,14.62988281l-2.35046387-2.35046387,1.43432617-5.73754883,2.35058594,2.35058594-1.43444824,5.73742676Zm2.84851074-7.15148926l-2.35058594-2.35058594,5.73754883-1.43432617,2.35046387,2.35046387-5.73742676,1.43444824Z" style="fill:#30333d; stroke-width:0px;"/></svg>